<?xml version="1.0" encoding="UTF-8" standalone="no"?>
<svg width="611px" height="322px" viewBox="0 0 611 322" version="1.1" xmlns="http://www.w3.org/2000/svg" xmlns:xlink="http://www.w3.org/1999/xlink" xmlns:sketch="http://www.bohemiancoding.com/sketch/ns">
    <!-- Generator: Sketch 3.1.1 (8761) - http://www.bohemiancoding.com/sketch -->
    <title>logo</title>
    <desc>Created with Sketch.</desc>
    <defs>
        <filter x="-50%" y="-50%" width="200%" height="200%" filterUnits="objectBoundingBox" id="filter-1">
            <feOffset dx="0" dy="4" in="SourceAlpha" result="shadowOffsetOuter1"></feOffset>
            <feGaussianBlur stdDeviation="0" in="shadowOffsetOuter1" result="shadowBlurOuter1"></feGaussianBlur>
            <feColorMatrix values="0 0 0 0 0   0 0 0 0 0   0 0 0 0 0  0 0 0 0.0882529438 0" in="shadowBlurOuter1" type="matrix" result="shadowMatrixOuter1"></feColorMatrix>
            <feOffset dx="0" dy="5" in="SourceAlpha" result="shadowOffsetInner1"></feOffset>
            <feGaussianBlur stdDeviation="3" in="shadowOffsetInner1" result="shadowBlurInner1"></feGaussianBlur>
            <feComposite in="shadowBlurInner1" in2="SourceAlpha" operator="arithmetic" k2="-1" k3="1" result="shadowInnerInner1"></feComposite>
            <feColorMatrix values="0 0 0 0 0.766171423   0 0 0 0 0.941060799   0 0 0 0 0.869922882  0 0 0 0.229865829 0" in="shadowInnerInner1" type="matrix" result="shadowMatrixInner1"></feColorMatrix>
            <feMerge>
                <feMergeNode in="shadowMatrixOuter1"></feMergeNode>
                <feMergeNode in="SourceGraphic"></feMergeNode>
                <feMergeNode in="shadowMatrixInner1"></feMergeNode>
            </feMerge>
        </filter>
        <path d="M176.75953,163.84026 C177.459439,128.618974 159.584155,112.537474 159.584155,112.537474 C159.584155,112.537474 142.818942,93.9223353 107.285592,103.741627 C107.285592,103.741627 82.3852118,108.177467 84.538316,132.347787 C84.538316,132.347787 85.391607,147.772524 90.6093989,167.245589 C93.1810249,176.843028 96.4907392,190.864169 104.449735,198.868987 C104.449735,198.868987 114.646886,209.106609 136.447267,203.116135 C136.447267,203.116135 176.074242,195.777874 176.75953,163.84026 L176.75953,163.84026 Z M131.968,145.704 C135.568,145.704 137.584,148.728 137.584,151.752 C137.584,155.064 135.136,157.08 131.968,157.08 C128.8,157.08 126.208,156.36 126.208,151.752 C126.208,147 128.656,145.704 131.968,145.704 L131.968,145.704 Z M233.788,99.624 C233.788,99.624 181.948,94.296 181.948,153.912 C181.948,153.912 181.948,202.584 233.788,202.584 C233.788,202.584 279.868,202.584 279.868,148.44 C279.868,148.44 279.868,99.624 233.788,99.624 L233.788,99.624 Z M231.628,145.848 C235.228,145.848 237.244,148.872 237.244,151.896 C237.244,155.208 234.796,157.224 231.628,157.224 C228.46,157.224 226.156,155.928 225.868,151.896 C225.58,148.872 228.316,145.848 231.628,145.848 L231.628,145.848 Z M287.681321,125.144046 C287.681321,125.144046 282.839329,159.116562 292.131226,188.780652 C292.131226,188.780652 296.72393,204.915585 313.069806,203.339515 C313.069806,203.339515 339.084365,205.850949 333.203942,158.914812 C333.203942,158.914812 340.413384,202.149224 371.67869,199.241183 C371.67869,199.241183 389.692092,200.868595 393.155825,176.08661 C393.155825,176.08661 398.47597,144.82334 389.835024,112.082346 C389.835024,112.082346 386.207686,95.3025017 368.148063,97.14276 C368.148063,97.14276 344.706125,96.3280022 347.889384,135.657755 C347.889384,135.657755 344.706125,96.3280022 312.772798,100.004514 C290.290184,102.587113 287.681321,125.144046 287.681321,125.144046 L287.681321,125.144046 Z M433.423576,95.6252384 C433.423576,95.6252384 414.778617,90.6782176 406.848586,113.993473 C406.848586,113.993473 395.180926,150.452465 406.033829,176.69832 C406.033829,176.69832 413.495199,198.105071 444.256415,202.719108 C481.006772,208.174865 493.789012,178.270784 493.789012,178.270784 C493.789012,178.270784 505.76499,152.034185 503.376279,122.470025 C503.376279,122.470025 502.033545,105.122326 482.479808,103.537548 C482.479808,103.537548 462.248535,99.530907 459.752668,121.428657 C457.895798,137.74502 456.889895,152.145167 450.045162,151.183202 C443.057831,150.201197 446.48791,136.141746 448.772575,119.885505 C451.818796,98.210518 433.423576,95.6252384 433.423576,95.6252384 L433.423576,95.6252384 Z M519.006307,183.276003 C516.061855,202.197568 533.133861,206.745714 533.133861,206.745714 C533.133861,206.745714 547.508935,213.497747 557.454883,198.035029 C557.454883,198.035029 567.908661,184.463942 573.762059,155.553385 C573.762059,155.553385 596.856379,168.120341 606.43584,145.575922 C606.43584,145.575922 612.557767,132.038687 597.498356,122.247554 C597.498356,122.247554 570.576074,105.589018 539.805112,100.563927 C539.805112,100.563927 521.28554,95.7686029 514.422077,113.648535 C506.47491,134.351615 534.900642,141.869844 534.900642,141.869844 C534.900642,141.869844 522.074348,163.630655 519.006307,183.276003 Z" id="path-2"></path>
        <filter x="-50%" y="-50%" width="200%" height="200%" filterUnits="objectBoundingBox" id="filter-3">
            <feOffset dx="0" dy="4" in="SourceAlpha" result="shadowOffsetOuter1"></feOffset>
            <feGaussianBlur stdDeviation="0" in="shadowOffsetOuter1" result="shadowBlurOuter1"></feGaussianBlur>
            <feColorMatrix values="0 0 0 0 0   0 0 0 0 0   0 0 0 0 0  0 0 0 0.0882529438 0" in="shadowBlurOuter1" type="matrix" result="shadowMatrixOuter1"></feColorMatrix>
            <feOffset dx="0" dy="5" in="SourceAlpha" result="shadowOffsetInner1"></feOffset>
            <feGaussianBlur stdDeviation="3" in="shadowOffsetInner1" result="shadowBlurInner1"></feGaussianBlur>
            <feComposite in="shadowBlurInner1" in2="SourceAlpha" operator="arithmetic" k2="-1" k3="1" result="shadowInnerInner1"></feComposite>
            <feColorMatrix values="0 0 0 0 0.766171423   0 0 0 0 0.941060799   0 0 0 0 0.869922882  0 0 0 0.229865829 0" in="shadowInnerInner1" type="matrix" result="shadowMatrixInner1"></feColorMatrix>
            <feMerge>
                <feMergeNode in="shadowMatrixOuter1"></feMergeNode>
                <feMergeNode in="SourceGraphic"></feMergeNode>
                <feMergeNode in="shadowMatrixInner1"></feMergeNode>
            </feMerge>
        </filter>
        <path d="M174.131216,256.00214 C174.131216,256.00214 208.496208,255.844929 208.180689,236.732923 C208.020396,228.337883 202.780057,215.198581 167.384363,221.140521 C167.384363,221.140521 138.856748,222.757214 138.364639,251.83392 C138.364639,251.83392 136.999954,279.712033 170.946116,283.233283 C170.946116,283.233283 137.709521,281.946211 141.048933,306.780349 C141.048933,306.780349 143.390391,330.576369 185.882302,322.167227 C185.882302,322.167227 222.990583,317.175659 218.74368,282.587411 C218.74368,282.587411 217.407775,256.346622 174.131216,256.00214 L174.131216,256.00214 Z M271.085384,251.8404 C271.085384,251.8404 269.944334,219.008017 244.949369,220.755836 C226.27497,222.061677 224.802235,246.415735 224.802235,246.415735 C224.802235,246.415735 222.393287,265.638601 227.432956,298.487068 C231.853845,326.615201 252.458974,324.019537 252.458974,324.019537 C275.001857,322.298834 274.465538,289.857219 274.465538,289.857219 L279.780559,289.485557 C279.780559,289.485557 282.62531,321.910101 305.485627,320.600256 C326.324809,319.28739 326.56799,293.864497 326.56799,293.864497 C326.56799,293.864497 328.111039,270.515984 323.062309,243.730919 C317.779525,215.663055 298.233186,216.885517 298.233186,216.885517 C273.38187,218.62329 276.544055,251.458692 276.544055,251.458692 L271.085384,251.8404 Z M386.296,220.624 C386.296,220.624 334.456,215.296 334.456,274.912 C334.456,274.912 334.456,323.584 386.296,323.584 C386.296,323.584 432.376,323.584 432.376,269.44 C432.376,269.44 432.376,220.624 386.296,220.624 L386.296,220.624 Z M387.136,258.848 C390.736,258.848 392.752,261.872 392.752,264.896 C392.752,268.208 390.304,270.224 387.136,270.224 C383.968,270.224 381.664,268.928 381.376,264.896 C381.088,261.872 383.824,258.848 387.136,258.848 L387.136,258.848 Z M531.48935,261.845986 C531.48935,261.845986 535.746507,226.381328 493.452533,218.983146 C493.452533,218.983146 460.993238,210.931326 446.557626,239.148888 C446.557626,239.148888 433.418506,264.349527 438.091106,295.252574 C438.091106,295.252574 441.381659,318.399797 464.090294,319.264645 C464.090294,319.264645 485.477772,321.252553 483.111415,292.564025 C483.111415,292.564025 527.043345,303.827786 531.48935,261.845986 L531.48935,261.845986 Z M485.988,252.448 C489.588,252.448 491.604,255.472 491.604,258.496 C491.604,261.808 489.156,263.824 485.988,263.824 C482.82,263.824 480.516,262.528 480.228,258.496 C479.94,255.472 482.676,252.448 485.988,252.448 L485.988,252.448 Z" id="path-4"></path>
    </defs>
    <g id="Page-1" stroke="none" stroke-width="1" fill="none" fill-rule="evenodd" sketch:type="MSPage">
        <g id="logo" sketch:type="MSLayerGroup" transform="translate(-15.000000, -35.000000)">
            <ellipse id="Oval-2" fill-opacity="0.189999938" fill="#A9DAE3" sketch:type="MSShapeGroup" transform="translate(311.737606, 203.812652) rotate(14.000000) translate(-311.737606, -203.812652) " cx="311.737606" cy="203.812652" rx="274.160751" ry="141.696144"></ellipse>
            <ellipse id="Oval-1" fill="#D3F2F8" sketch:type="MSShapeGroup" transform="translate(320.500000, 197.000000) rotate(-6.000000) translate(-320.500000, -197.000000) " cx="320.5" cy="197" rx="306.5" ry="146"></ellipse>
            <text id="the" sketch:type="MSTextLayer" font-family="League Script Thin" font-size="36" font-style="condensed" font-weight="260" fill="#257EC4">
                <tspan x="254" y="75">the</tspan>
            </text>
            <g id="DONUT" filter="url(#filter-1)">
                <use stroke="#1F5B8A" stroke-width="1" fill="none" sketch:type="MSShapeGroup" xlink:href="#path-2"></use>
                <use stroke="none" fill="#16588B" xlink:href="#path-2"></use>
            </g>
            <g id="SHOP" filter="url(#filter-3)">
                <use stroke="#1F5B8A" stroke-width="1" fill="none" sketch:type="MSShapeGroup" xlink:href="#path-4"></use>
                <use stroke="none" fill="#16588B" xlink:href="#path-4"></use>
            </g>
        </g>
    </g>
</svg>